# xmcd
#
# Track frame offsets: 
#        150
#        15323
#        30747
#        46726
#        58518
#        70804
#
# Disc length: 1139 seconds
#
# Revision: 0
# Processed by: cddbd v1.5.2PL0 Copyright (c) Steve Scherf et al.
# Submitted via: ExactAudioCopy v0.99pb3
#
DISCID=40047106
DTITLE=Rain - La Vache Qui Rit
DYEAR=2007
DGENRE=Booty Bass
TTITLE0=That Time Of Year
TTITLE1=End Of My Mind
TTITLE2=Snakeout 
TTITLE3=Worlds At War
TTITLE4=Around The Axis
TTITLE5=Rivers
EXTD=
EXTT0=
EXTT1=
EXTT2=
EXTT3=
EXTT4=
EXTT5=
PLAYORDER=
